<?xml version="1.0" encoding="utf-8"?>
<!-- Generator: Adobe Illustrator 16.0.4, SVG Export Plug-In . SVG Version: 6.00 Build 0)  -->
<!DOCTYPE svg PUBLIC "-//W3C//DTD SVG 1.1//EN" "http://www.w3.org/Graphics/SVG/1.1/DTD/svg11.dtd">
<svg version="1.1" id="Layer_1" xmlns="http://www.w3.org/2000/svg" xmlns:xlink="http://www.w3.org/1999/xlink" x="0px" y="0px"
	 width="497px" height="483px" viewBox="0 0 497 483" enable-background="new 0 0 497 483" xml:space="preserve">
<title>ConstraintJS Logo</title>
<g>
	<g>
		<polygon fill="#FFDF40" stroke="#2E3233" stroke-width="4" stroke-miterlimit="10" points="102.603,445.718 99.945,443.583 
			10.218,152.111 12.875,147.835 61.503,147.835 30.174,41.508 32.847,37.282 463.12,37.282 465.804,41.466 435.823,147.835 
			484.12,147.835 486.782,152.093 398.847,443.562 396.185,445.718 		"/>
	</g>
	<g>
		<g>
			<path fill="#2E3233" d="M103.958,134.966c-1.407,0.958-4.582,1.851-8.526,1.788c-18.356-0.306-26.216-23.932-28.412-39.907
				c-2.308-16.786,2.088-41.878,21.278-42.551c4.268-0.147,7.46,1.189,8.696,2.151c-0.417,6.253-0.608,9.379-0.937,15.634
				c-1.41-0.842-2.988-1.563-5.306-1.561c-6.782,0.008-11.472,7.466-9.424,25.488c1.925,16.94,7.763,24.273,14.494,24.279
				c1.64,0.001,3.738-0.476,5.062-0.955C102.081,125.586,102.695,128.712,103.958,134.966z"/>
			<path fill="#2E3233" d="M138.889,93.717c1.178,13.837,0.518,43.456-15.691,43.324c-15.724-0.128-22.384-26.733-23.934-41.754
				c-1.45-14.051,0.802-40.837,17.439-41.283C132.977,53.572,137.688,79.593,138.889,93.717z M113.443,95.524
				c1.75,19.131,5.048,25.39,8.413,25.391c3.623,0.003,4.329-9.622,2.943-26.235c-1.165-13.964-3.285-24.555-7.48-24.552
				C113.924,70.134,111.811,77.72,113.443,95.524z"/>
			<path fill="#2E3233" d="M147.097,136.114c-2.383-27.039-4.311-54.068-5.785-81.177c5.071-0.005,7.608-0.009,12.68-0.016
				c3.93,11.66,5.915,17.487,9.891,29.152c1.777,5.183,5.155,15.426,7,21.694c0.068,0,0.105,0,0.176,0
				c-0.731-6.629-2.562-22.416-3.223-37.724c-0.228-5.254-0.334-7.881-0.532-13.137c4.856-0.005,7.283-0.007,12.141-0.012
				c0.957,27.106,2.21,54.179,3.76,81.254c-4.8-0.001-7.203-0.005-12.005-0.011c-3.879-10.946-5.827-16.417-9.719-27.36
				c-2.242-6.267-5.64-16.989-7.058-23.012c-0.07,0-0.106,0-0.177,0c0.68,6.989,2.037,20.482,3.244,36.384
				c0.425,5.593,0.647,8.386,1.109,13.976C153.994,136.123,151.695,136.12,147.097,136.114z"/>
			<path fill="#2E3233" d="M188.539,117.588c2.604,1.93,6.885,3.137,10.251,3.138c5.004,0.001,7.136-3.135,6.997-7.233
				c-0.174-5.066-2.687-7.354-7.995-11.576c-9.826-7.816-11.824-16.761-12.051-22.79c-0.502-13.384,5.639-24.963,19.674-24.971
				c4.139-0.001,8.12,1.445,10.03,2.892c-0.688,6.417-1.021,9.623-1.678,16.04c-1.811-1.446-4.427-2.771-7.907-2.77
				c-4.64,0.001-6.784,3.257-6.675,6.997c0.103,3.497,1.438,5.823,8.285,10.972c8.343,6.279,11.257,14.837,11.454,23.158
				c0.364,15.317-7.431,25.449-19.514,25.44c-4.935-0.003-9.613-1.575-11.747-3.141C187.988,127.283,188.162,124.05,188.539,117.588
				z"/>
			<path fill="#2E3233" d="M228.455,72.241c-4.174,0-6.256,0-10.429,0c-0.123-6.95-0.18-10.42-0.281-17.369
				c14.027-0.004,21.042-0.006,35.07-0.006c-0.008,6.949-0.012,10.423-0.021,17.372c-4.209,0-6.312,0-10.52,0
				c0.088,21.313,0.206,42.626,0.355,63.937c-5.279,0-7.919-0.001-13.201-0.003C229.032,114.863,228.712,93.553,228.455,72.241z"/>
			<path fill="#2E3233" d="M256.585,56.071c4.049-0.966,9.184-1.568,14.133-1.566c6.654,0.001,13.031,1.109,17.156,6.158
				c3.842,4.703,4.811,10.135,4.635,17.372c-0.195,7.96-3.342,16.163-9.479,20.023c-0.006,0.097-0.006,0.145-0.012,0.242
				c3.811,2.412,5.621,7.243,6.414,15.195c0.807,8.073,2.107,19.539,3.098,22.673c-5.516,0.004-8.271,0.006-13.793,0.007
				c-0.625-2.171-1.795-10.621-2.391-19.18c-0.674-9.644-2.209-11.941-5.178-11.941c-0.523,0-0.787,0.002-1.312,0.002
				c-0.176,12.449-0.275,18.671-0.486,31.12c-5.248,0.001-7.871,0.001-13.117,0.003C256.399,109.476,256.505,82.774,256.585,56.071z
				 M270.044,90.699c0.705,0,1.064,0,1.77,0c4.404,0,6.701-5.188,6.801-11.097c0.094-5.911-1.639-10.5-5.814-10.618
				c-0.871-0.024-1.969,0.123-2.508,0.484C270.2,77.961,270.151,82.205,270.044,90.699z"/>
			<path fill="#2E3233" d="M307.271,120.124c-1.088,6.415-1.643,9.621-2.738,16.036c-5.109,0.002-7.662,0.002-12.771,0.005
				c5.08-27.089,10.176-54.177,15.195-81.28c6.762,0.004,10.145,0.007,16.906,0.014c2.652,27.055,4.867,54.099,6.562,81.24
				c-5.115,0.005-7.662,0.011-12.771,0.012c-0.359-6.413-0.555-9.619-0.971-16.032C312.913,120.121,311.03,120.121,307.271,120.124z
				 M316.356,105.77c-0.297-6.171-0.455-9.26-0.793-15.434c-0.254-4.58-0.713-13.381-1.072-18.444c-0.07,0-0.105,0-0.178,0
				c-0.801,5.063-2.02,14.105-2.721,18.447c-0.947,6.172-1.43,9.26-2.395,15.435C312.062,105.772,313.493,105.77,316.356,105.77z"/>
			<path fill="#2E3233" d="M352.808,54.926c-1.391,27.111-3.203,54.15-5.451,81.195c-5.281,0.005-7.918,0.007-13.195,0.016
				c1.938-27.06,3.508-54.116,4.711-81.223C344.444,54.916,347.229,54.921,352.808,54.926z"/>
			<path fill="#2E3233" d="M354.935,136.109c2.426-27.034,4.381-54.062,5.869-81.172c5.074,0.005,7.611,0.007,12.686,0.016
				c2.762,11.657,4.068,17.486,6.52,29.138c1.098,5.177,3.018,15.404,3.898,21.661c0.072,0,0.102,0,0.172,0
				c0.295-6.619,0.762-22.383,1.844-37.664c0.373-5.248,0.551-7.867,0.879-13.112c4.857,0.007,7.277,0.008,12.135,0.018
				c-2.018,27.116-4.645,54.083-7.891,81.062c-4.809,0.007-7.207,0.011-12.01,0.02c-1.83-10.921-2.836-16.382-4.998-27.312
				c-1.256-6.259-3.096-16.97-3.713-22.99c-0.076,0-0.104,0-0.178,0c-0.252,6.982-0.775,20.465-2.305,36.357
				c-0.539,5.585-0.826,8.379-1.408,13.966C361.831,136.102,359.532,136.104,354.935,136.109z"/>
			<path fill="#2E3233" d="M411.825,72.329c-4.172-0.004-6.256-0.005-10.428-0.01c0.574-6.927,0.832-10.39,1.318-17.316
				c14.027,0.025,21.037,0.039,35.062,0.07c-0.588,6.915-0.914,10.372-1.617,17.286c-4.205-0.004-6.311-0.007-10.52-0.014
				c-2.043,21.298-4.678,42.527-7.869,63.662c-5.279,0.011-7.918,0.018-13.201,0.028C407.511,114.87,409.944,93.626,411.825,72.329z
				"/>
		</g>
	</g>
	<g>
		<g>
			<path fill="#FFFEFC" stroke="#2E3233" stroke-width="4" stroke-miterlimit="10" d="M219.902,340.3
				c-1.097,8.15-3.754,15.772-7.913,22.857c-4.166,7.094-10.196,13.011-18.063,17.764c-7.875,4.755-18.558,7.133-32.125,7.133
				c-7.634,0-15.064-1.21-22.326-3.639c-7.262-2.425-13.855-6.213-19.807-11.354c-5.95-5.146-10.925-11.749-14.919-19.804
				c-3.99-8.051-6.415-17.809-7.216-29.265c-0.505-7.218-0.755-10.834-1.259-18.054c15.01,0,22.515,0,37.526,0
				c0.198,3.728,0.297,5.59,0.493,9.319c0.268,5.055,0.865,9.713,1.783,13.979c0.921,4.268,2.328,7.91,4.214,10.921
				c1.886,3.009,4.384,5.387,7.494,7.135c3.106,1.745,7.072,2.62,11.908,2.62c5.35,0,9.453-1.063,12.317-3.198
				c2.86-2.137,4.893-4.901,6.081-8.298c1.188-3.396,1.854-7.09,1.986-11.072c0.134-3.977,0.143-7.809,0.024-11.502
				c-1.5-46.783-2.995-93.571-4.494-140.355c14.647,0,29.293,0,43.94,0c0.625,47.469,1.253,94.929,1.882,142.402
				C221.519,324.676,221.002,332.147,219.902,340.3z"/>
			<path fill="#FFFEFC" stroke="#2E3233" stroke-width="4" stroke-miterlimit="10" d="M288.987,332.145
				c2.174,4.854,5.1,8.785,8.756,11.794c3.654,3.007,7.957,5.243,12.926,6.695c4.963,1.453,10.113,2.181,15.459,2.181
				c3.623,0,7.516-0.341,11.68-1.019c4.164-0.68,8.105-1.988,11.822-3.929c3.719-1.941,6.875-4.609,9.473-8.009
				c2.602-3.394,4.047-7.718,4.318-12.956c0.289-5.633-1.096-10.192-4.17-13.687c-3.08-3.495-7.203-6.408-12.395-8.738
				c-5.186-2.329-11.107-4.37-17.762-6.118c-6.654-1.749-13.486-3.833-20.264-5.823c-6.902-2.026-13.912-4.316-20.615-7.131
				c-6.713-2.815-12.719-6.455-18.045-10.927c-5.318-4.464-9.643-10.042-12.947-16.736c-3.314-6.7-4.982-14.805-4.975-24.317
				c0.01-10.679,2.162-19.951,6.516-27.813c4.354-7.856,10.086-14.417,17.205-19.66c7.113-5.242,15.195-9.121,24.207-11.647
				c9.014-2.522,18.033-3.782,27.006-3.782c10.469,0,20.482,1.21,29.988,3.64c9.5,2.424,17.838,6.361,24.955,11.789
				c7.117,5.433,12.572,12.379,16.357,20.824c3.783,8.445,5.234,18.688,4.43,30.722c-13.805,0-27.609,0-41.41,0
				c-0.064-6.214-1.041-11.36-2.953-15.437c-1.908-4.078-4.564-7.28-7.947-9.607c-3.389-2.331-7.326-3.98-11.795-4.947
				c-4.471-0.973-9.381-1.458-14.715-1.458c-3.5,0-7.016,0.393-10.531,1.167c-3.516,0.776-6.729,2.137-9.619,4.075
				c-2.896,1.942-5.289,4.373-7.178,7.281c-1.891,2.912-2.871,6.601-2.957,11.067c-0.078,4.074,0.594,7.381,1.99,9.899
				c1.4,2.522,4.209,4.851,8.41,6.984c4.197,2.14,10.02,4.274,17.439,6.413c7.414,2.137,17.328,5.263,28.996,8.154
				c3.447,0.855,8.488,2.182,14.75,4.225c6.266,2.038,12.412,5.289,18.396,9.757c5.982,4.464,10.996,10.438,15.012,17.907
				c4.023,7.47,5.586,17.037,4.775,28.685c-0.664,9.515-2.947,18.353-6.779,26.502c-3.832,8.152-9.15,15.196-15.926,21.114
				c-6.781,5.921-14.961,10.532-24.561,13.832c-9.604,3.299-20.561,4.944-32.939,4.944c-10.012,0-19.67-1.407-29.047-4.223
				c-9.375-2.812-17.65-7.229-24.869-13.247s-12.988-13.694-17.299-23.012c-4.314-9.314-6.445-20.378-6.295-33.194
				c13.334,0,26.676,0,40.014,0C285.769,321.37,286.813,327.299,288.987,332.145z"/>
		</g>
	</g>
</g>
</svg>
