<?xml version="1.0" encoding="utf-8"?>
<!-- Generator: Adobe Illustrator 16.0.4, SVG Export Plug-In . SVG Version: 6.00 Build 0)  -->
<!DOCTYPE svg PUBLIC "-//W3C//DTD SVG 1.1//EN" "http://www.w3.org/Graphics/SVG/1.1/DTD/svg11.dtd">
<svg version="1.1" id="Layer_1" xmlns="http://www.w3.org/2000/svg" xmlns:xlink="http://www.w3.org/1999/xlink" x="0px" y="0px"
	 width="497px" height="483px" viewBox="0 0 497 483" enable-background="new 0 0 497 483" xml:space="preserve">
<title>ConstraintJS Logo</title>
<g>
	<g>
		<polygon fill="#FFDF40" stroke="#2E3233" stroke-width="4" stroke-miterlimit="10" points="152.24,397.332 150.422,395.871 
			89.034,196.458 90.852,193.532 124.121,193.532 102.687,120.787 104.516,117.896 398.893,117.896 400.729,120.759 
			380.216,193.532 413.259,193.532 415.08,196.446 354.919,395.857 353.098,397.332 		"/>
	</g>
	<g>
		<g>
			<path fill="#2E3233" d="M153.167,184.728c-0.963,0.656-3.135,1.266-5.833,1.223c-12.559-0.209-17.936-16.373-19.438-27.302
				c-1.579-11.485,1.428-28.652,14.557-29.112c2.92-0.101,5.104,0.814,5.95,1.472c-0.286,4.278-0.416,6.417-0.641,10.696
				c-0.964-0.576-2.044-1.069-3.63-1.068c-4.64,0.006-7.849,5.108-6.448,17.438c1.317,11.59,5.311,16.607,9.916,16.611
				c1.122,0.001,2.557-0.325,3.463-0.653C151.883,178.31,152.303,180.449,153.167,184.728z"/>
			<path fill="#2E3233" d="M177.066,156.507c0.806,9.467,0.354,29.731-10.736,29.641c-10.757-0.088-15.314-18.29-16.374-28.567
				c-0.992-9.613,0.549-27.939,11.931-28.244C173.021,129.041,176.244,146.844,177.066,156.507z M159.656,157.743
				c1.198,13.089,3.454,17.371,5.756,17.372c2.479,0.002,2.962-6.583,2.014-17.949c-0.797-9.554-2.248-16.8-5.118-16.798
				C159.986,140.372,158.54,145.562,159.656,157.743z"/>
			<path fill="#2E3233" d="M182.681,185.513c-1.63-18.499-2.949-36.991-3.958-55.538c3.47-0.004,5.205-0.006,8.675-0.011
				c2.689,7.977,4.047,11.964,6.767,19.945c1.216,3.546,3.527,10.554,4.789,14.842c0.047,0,0.072,0,0.12,0
				c-0.5-4.535-1.753-15.336-2.205-25.809c-0.156-3.595-0.229-5.392-0.364-8.988c3.322-0.003,4.983-0.005,8.306-0.008
				c0.655,18.545,1.512,37.067,2.573,55.591c-3.285-0.001-4.928-0.004-8.214-0.007c-2.654-7.489-3.987-11.232-6.649-18.719
				c-1.534-4.287-3.859-11.623-4.829-15.744c-0.048,0-0.073,0-0.121,0c0.465,4.782,1.394,14.013,2.219,24.893
				c0.291,3.826,0.443,5.737,0.759,9.562C187.4,185.519,185.827,185.517,182.681,185.513z"/>
			<path fill="#2E3233" d="M211.034,172.839c1.781,1.32,4.71,2.146,7.014,2.147c3.423,0.001,4.882-2.145,4.787-4.949
				c-0.119-3.466-1.838-5.031-5.47-7.92c-6.722-5.348-8.089-11.467-8.245-15.592c-0.343-9.157,3.858-17.079,13.46-17.084
				c2.832-0.001,5.556,0.988,6.863,1.978c-0.471,4.39-0.699,6.584-1.148,10.974c-1.239-0.989-3.029-1.896-5.41-1.895
				c-3.174,0.001-4.641,2.228-4.566,4.787c0.07,2.393,0.984,3.984,5.668,7.507c5.708,4.296,7.702,10.151,7.836,15.844
				c0.249,10.479-5.084,17.411-13.35,17.405c-3.377-0.002-6.577-1.077-8.037-2.149C210.657,179.471,210.776,177.26,211.034,172.839z
				"/>
			<path fill="#2E3233" d="M238.343,141.814c-2.855,0-4.28,0-7.135,0c-0.084-4.755-0.123-7.129-0.192-11.883
				c9.597-0.003,14.396-0.004,23.994-0.004c-0.005,4.754-0.009,7.131-0.016,11.885c-2.878,0-4.318,0-7.196,0
				c0.061,14.582,0.141,29.163,0.243,43.743c-3.612,0-5.418-0.001-9.031-0.002C238.738,170.974,238.519,156.395,238.343,141.814z"/>
			<path fill="#2E3233" d="M257.589,130.751c2.771-0.661,6.283-1.073,9.668-1.072c4.554,0.001,8.916,0.759,11.738,4.213
				c2.629,3.218,3.291,6.934,3.171,11.885c-0.133,5.446-2.285,11.058-6.484,13.699c-0.004,0.067-0.004,0.099-0.008,0.166
				c2.607,1.65,3.846,4.955,4.389,10.396c0.551,5.523,1.441,13.367,2.119,15.512c-3.774,0.003-5.66,0.004-9.437,0.005
				c-0.429-1.485-1.229-7.266-1.636-13.122c-0.461-6.598-1.512-8.17-3.543-8.17c-0.358,0-0.539,0.001-0.898,0.001
				c-0.12,8.517-0.188,12.774-0.332,21.291c-3.591,0.001-5.386,0.001-8.975,0.002C257.462,167.288,257.534,149.02,257.589,130.751z
				 M266.797,154.442c0.482,0,0.729,0,1.211,0c3.014,0,4.584-3.549,4.652-7.592c0.064-4.044-1.121-7.184-3.979-7.264
				c-0.595-0.017-1.346,0.084-1.714,0.331C266.904,145.727,266.87,148.631,266.797,154.442z"/>
			<path fill="#2E3233" d="M292.266,174.573c-0.744,4.389-1.123,6.582-1.873,10.971c-3.496,0.002-5.242,0.002-8.738,0.004
				c3.475-18.534,6.961-37.066,10.396-55.609c4.626,0.003,6.94,0.005,11.566,0.009c1.815,18.51,3.33,37.013,4.489,55.582
				c-3.498,0.003-5.242,0.007-8.737,0.008c-0.246-4.387-0.38-6.581-0.664-10.968C296.126,174.571,294.838,174.571,292.266,174.573z
				 M298.482,164.753c-0.203-4.222-0.312-6.335-0.543-10.559c-0.174-3.134-0.487-9.155-0.733-12.619c-0.049,0-0.072,0-0.122,0
				c-0.548,3.464-1.382,9.65-1.861,12.621c-0.649,4.223-0.979,6.335-1.638,10.56C295.544,164.755,296.523,164.753,298.482,164.753z"
				/>
			<path fill="#2E3233" d="M323.42,129.968c-0.95,18.548-2.191,37.047-3.729,55.55c-3.613,0.004-5.417,0.005-9.028,0.011
				c1.326-18.514,2.4-37.024,3.223-55.57C317.699,129.961,319.604,129.964,323.42,129.968z"/>
			<path fill="#2E3233" d="M324.876,185.51c1.659-18.496,2.997-36.987,4.016-55.535c3.471,0.004,5.207,0.005,8.678,0.011
				c1.89,7.975,2.784,11.963,4.46,19.935c0.751,3.542,2.066,10.539,2.667,14.819c0.05,0,0.071,0,0.118,0
				c0.202-4.528,0.521-15.313,1.262-25.768c0.255-3.59,0.376-5.382,0.601-8.971c3.323,0.005,4.979,0.006,8.302,0.012
				c-1.38,18.552-3.178,37.001-5.399,55.459c-3.29,0.005-4.931,0.008-8.216,0.014c-1.252-7.472-1.94-11.208-3.42-18.686
				c-0.859-4.282-2.118-11.61-2.54-15.729c-0.051,0-0.071,0-0.122,0c-0.172,4.777-0.53,14.001-1.576,24.874
				c-0.369,3.821-0.565,5.733-0.963,9.555C329.594,185.505,328.021,185.506,324.876,185.51z"/>
			<path fill="#2E3233" d="M363.798,141.874c-2.854-0.003-4.28-0.004-7.134-0.007c0.393-4.739,0.569-7.108,0.901-11.847
				c9.598,0.017,14.393,0.027,23.99,0.048c-0.403,4.731-0.626,7.096-1.107,11.826c-2.877-0.003-4.318-0.005-7.198-0.009
				c-1.397,14.571-3.199,29.095-5.384,43.555c-3.611,0.007-5.417,0.012-9.03,0.019C360.846,170.979,362.512,156.445,363.798,141.874
				z"/>
		</g>
	</g>
	<g>
		<g>
			<path fill="#FFFEFC" stroke="#2E3233" stroke-width="4" stroke-miterlimit="10" d="M232.492,325.209
				c-0.751,5.576-2.568,10.791-5.414,15.639c-2.85,4.852-6.975,8.901-12.358,12.153c-5.387,3.253-12.696,4.88-21.978,4.88
				c-5.223,0-10.306-0.828-15.274-2.49c-4.969-1.658-9.479-4.25-13.551-7.768c-4.071-3.52-7.475-8.038-10.207-13.549
				c-2.73-5.508-4.389-12.184-4.937-20.021c-0.346-4.939-0.517-7.412-0.862-12.352c10.269,0,15.404,0,25.674,0
				c0.135,2.55,0.203,3.824,0.337,6.376c0.183,3.458,0.592,6.646,1.22,9.563c0.63,2.92,1.593,5.412,2.883,7.472
				c1.29,2.059,2.999,3.686,5.127,4.881c2.125,1.194,4.838,1.793,8.147,1.793c3.66,0,6.467-0.728,8.427-2.188
				c1.957-1.461,3.347-3.353,4.16-5.677c0.813-2.323,1.269-4.851,1.359-7.575c0.092-2.721,0.098-5.343,0.017-7.869
				c-1.026-32.008-2.049-64.018-3.075-96.026c10.021,0,20.042,0,30.063,0c0.427,32.476,0.857,64.948,1.287,97.426
				C233.597,314.52,233.244,319.632,232.492,325.209z"/>
			<path fill="#FFFEFC" stroke="#2E3233" stroke-width="4" stroke-miterlimit="10" d="M279.757,319.63
				c1.488,3.32,3.489,6.011,5.99,8.069c2.501,2.057,5.444,3.586,8.844,4.58c3.396,0.994,6.919,1.492,10.576,1.492
				c2.479,0,5.142-0.233,7.991-0.697c2.849-0.465,5.546-1.36,8.089-2.688c2.543-1.328,4.703-3.154,6.481-5.479
				c1.779-2.321,2.768-5.28,2.954-8.864c0.198-3.854-0.75-6.973-2.854-9.363c-2.106-2.392-4.928-4.385-8.479-5.979
				c-3.548-1.594-7.599-2.99-12.152-4.186s-9.226-2.623-13.863-3.984c-4.722-1.387-9.519-2.953-14.106-4.879
				c-4.591-1.926-8.701-4.416-12.344-7.475c-3.639-3.054-6.597-6.871-8.859-11.451c-2.267-4.584-3.408-10.129-3.403-16.637
				c0.006-7.306,1.479-13.649,4.458-19.028c2.979-5.375,6.9-9.864,11.771-13.45c4.867-3.587,10.396-6.241,16.562-7.969
				c6.167-1.726,12.337-2.588,18.476-2.588c7.162,0,14.013,0.828,20.516,2.491c6.5,1.658,12.204,4.351,17.074,8.065
				c4.869,3.717,8.602,8.469,11.191,14.247c2.588,5.778,3.581,12.785,3.03,21.018c-9.444,0-18.888,0-28.331,0
				c-0.044-4.251-0.713-7.771-2.02-10.56c-1.306-2.79-3.123-4.981-5.438-6.573c-2.317-1.595-5.012-2.723-8.068-3.385
				c-3.059-0.666-6.418-0.998-10.068-0.998c-2.395,0-4.801,0.269-7.205,0.799c-2.406,0.531-4.604,1.462-6.582,2.788
				c-1.981,1.329-3.618,2.991-4.91,4.981c-1.293,1.992-1.964,4.517-2.023,7.571c-0.053,2.788,0.406,5.05,1.361,6.774
				c0.959,1.725,2.88,3.318,5.754,4.778c2.872,1.464,6.855,2.925,11.932,4.388c5.072,1.461,11.855,3.6,19.837,5.578
				c2.359,0.586,5.808,1.493,10.092,2.89c4.286,1.395,8.491,3.62,12.586,6.676c4.093,3.054,7.524,7.14,10.272,12.251
				c2.752,5.111,3.821,11.656,3.266,19.625c-0.455,6.51-2.016,12.555-4.638,18.132s-6.261,10.396-10.896,14.445
				c-4.64,4.051-10.235,7.206-16.804,9.463c-6.569,2.257-14.066,3.384-22.536,3.384c-6.85,0-13.457-0.964-19.872-2.89
				c-6.414-1.923-12.076-4.946-17.015-9.062c-4.938-4.117-8.885-9.369-11.836-15.744c-2.951-6.373-4.408-13.943-4.306-22.711
				c9.124,0,18.251,0,27.376,0C277.555,312.258,278.27,316.314,279.757,319.63z"/>
		</g>
	</g>
</g>
</svg>
